<mxfile host="app.diagrams.net" modified="2023-07-19T23:38:01.403Z" agent="Mozilla/5.0 (Windows NT 10.0; Win64; x64) AppleWebKit/537.36 (KHTML, like Gecko) Chrome/114.0.0.0 Safari/537.36" etag="ADeL9krL6XvFyjKKiyUD" version="21.6.3" type="device">
  <diagram id="R2lEEEUBdFMjLlhIrx00" name="Page-1">
    <mxGraphModel dx="1290" dy="549" grid="1" gridSize="10" guides="1" tooltips="1" connect="1" arrows="1" fold="1" page="1" pageScale="1" pageWidth="850" pageHeight="1100" math="0" shadow="0" extFonts="Permanent Marker^https://fonts.googleapis.com/css?family=Permanent+Marker">
      <root>
        <mxCell id="0" />
        <mxCell id="1" parent="0" />
        <mxCell id="C-vyLk0tnHw3VtMMgP7b-12" value="" style="endArrow=ERzeroToMany;startArrow=ERzeroToMany;endFill=1;startFill=0;fontFamily=Encode Sans Semi Condensed;fontSource=https%3A%2F%2Ffonts.googleapis.com%2Fcss%3Ffamily%3DEncode%2BSans%2BSemi%2BCondensed;fontStyle=2;entryX=0.5;entryY=0;entryDx=0;entryDy=0;strokeColor=#7994A9;" parent="1" source="vklXVT9jZYQZWCP35pfa-23" target="vklXVT9jZYQZWCP35pfa-65" edge="1">
          <mxGeometry width="100" height="100" relative="1" as="geometry">
            <mxPoint x="700" y="165" as="sourcePoint" />
            <mxPoint x="700" y="355" as="targetPoint" />
          </mxGeometry>
        </mxCell>
        <mxCell id="vklXVT9jZYQZWCP35pfa-13" value="User Data" style="shape=table;startSize=30;container=1;collapsible=1;childLayout=tableLayout;fixedRows=1;rowLines=0;fontStyle=1;align=center;resizeLast=1;fontFamily=Encode Sans Semi Condensed;fontSource=https%3A%2F%2Ffonts.googleapis.com%2Fcss%3Ffamily%3DEncode%2BSans%2BSemi%2BCondensed;fillColor=#CBD9E2;strokeColor=#7994A9;" parent="1" vertex="1">
          <mxGeometry x="150" y="68" width="230" height="150" as="geometry" />
        </mxCell>
        <mxCell id="vklXVT9jZYQZWCP35pfa-14" value="" style="shape=tableRow;horizontal=0;startSize=0;swimlaneHead=0;swimlaneBody=0;fillColor=none;collapsible=0;dropTarget=0;points=[[0,0.5],[1,0.5]];portConstraint=eastwest;top=0;left=0;right=0;bottom=1;fontFamily=Encode Sans Semi Condensed;fontSource=https%3A%2F%2Ffonts.googleapis.com%2Fcss%3Ffamily%3DEncode%2BSans%2BSemi%2BCondensed;fontStyle=2;strokeColor=#7994A9;" parent="vklXVT9jZYQZWCP35pfa-13" vertex="1">
          <mxGeometry y="30" width="230" height="30" as="geometry" />
        </mxCell>
        <mxCell id="vklXVT9jZYQZWCP35pfa-15" value="PK" style="shape=partialRectangle;connectable=0;fillColor=none;top=0;left=0;bottom=0;right=0;fontStyle=3;overflow=hidden;fontFamily=Encode Sans Semi Condensed;fontSource=https%3A%2F%2Ffonts.googleapis.com%2Fcss%3Ffamily%3DEncode%2BSans%2BSemi%2BCondensed;strokeColor=#7994A9;" parent="vklXVT9jZYQZWCP35pfa-14" vertex="1">
          <mxGeometry width="30" height="30" as="geometry">
            <mxRectangle width="30" height="30" as="alternateBounds" />
          </mxGeometry>
        </mxCell>
        <mxCell id="vklXVT9jZYQZWCP35pfa-16" value="user_id         int(10)             " style="shape=partialRectangle;connectable=0;fillColor=none;top=0;left=0;bottom=0;right=0;align=left;spacingLeft=6;fontStyle=3;overflow=hidden;fontFamily=Encode Sans Semi Condensed;fontSource=https%3A%2F%2Ffonts.googleapis.com%2Fcss%3Ffamily%3DEncode%2BSans%2BSemi%2BCondensed;strokeColor=#7994A9;" parent="vklXVT9jZYQZWCP35pfa-14" vertex="1">
          <mxGeometry x="30" width="200" height="30" as="geometry">
            <mxRectangle width="200" height="30" as="alternateBounds" />
          </mxGeometry>
        </mxCell>
        <mxCell id="vklXVT9jZYQZWCP35pfa-17" value="" style="shape=tableRow;horizontal=0;startSize=0;swimlaneHead=0;swimlaneBody=0;fillColor=none;collapsible=0;dropTarget=0;points=[[0,0.5],[1,0.5]];portConstraint=eastwest;top=0;left=0;right=0;bottom=0;fontFamily=Encode Sans Semi Condensed;fontSource=https%3A%2F%2Ffonts.googleapis.com%2Fcss%3Ffamily%3DEncode%2BSans%2BSemi%2BCondensed;fontStyle=2;strokeColor=#7994A9;" parent="vklXVT9jZYQZWCP35pfa-13" vertex="1">
          <mxGeometry y="60" width="230" height="30" as="geometry" />
        </mxCell>
        <mxCell id="vklXVT9jZYQZWCP35pfa-18" value="" style="shape=partialRectangle;connectable=0;fillColor=none;top=0;left=0;bottom=0;right=0;editable=1;overflow=hidden;fontFamily=Encode Sans Semi Condensed;fontSource=https%3A%2F%2Ffonts.googleapis.com%2Fcss%3Ffamily%3DEncode%2BSans%2BSemi%2BCondensed;fontStyle=2;strokeColor=#7994A9;" parent="vklXVT9jZYQZWCP35pfa-17" vertex="1">
          <mxGeometry width="30" height="30" as="geometry">
            <mxRectangle width="30" height="30" as="alternateBounds" />
          </mxGeometry>
        </mxCell>
        <mxCell id="vklXVT9jZYQZWCP35pfa-19" value="username    varchar(50)    " style="shape=partialRectangle;connectable=0;fillColor=none;top=0;left=0;bottom=0;right=0;align=left;spacingLeft=6;overflow=hidden;fontFamily=Encode Sans Semi Condensed;fontSource=https%3A%2F%2Ffonts.googleapis.com%2Fcss%3Ffamily%3DEncode%2BSans%2BSemi%2BCondensed;fontStyle=2;strokeColor=#7994A9;" parent="vklXVT9jZYQZWCP35pfa-17" vertex="1">
          <mxGeometry x="30" width="200" height="30" as="geometry">
            <mxRectangle width="200" height="30" as="alternateBounds" />
          </mxGeometry>
        </mxCell>
        <mxCell id="vklXVT9jZYQZWCP35pfa-20" value="" style="shape=tableRow;horizontal=0;startSize=0;swimlaneHead=0;swimlaneBody=0;fillColor=none;collapsible=0;dropTarget=0;points=[[0,0.5],[1,0.5]];portConstraint=eastwest;top=0;left=0;right=0;bottom=0;fontFamily=Encode Sans Semi Condensed;fontSource=https%3A%2F%2Ffonts.googleapis.com%2Fcss%3Ffamily%3DEncode%2BSans%2BSemi%2BCondensed;fontStyle=2;strokeColor=#7994A9;" parent="vklXVT9jZYQZWCP35pfa-13" vertex="1">
          <mxGeometry y="90" width="230" height="30" as="geometry" />
        </mxCell>
        <mxCell id="vklXVT9jZYQZWCP35pfa-21" value="" style="shape=partialRectangle;connectable=0;fillColor=none;top=0;left=0;bottom=0;right=0;editable=1;overflow=hidden;fontFamily=Encode Sans Semi Condensed;fontSource=https%3A%2F%2Ffonts.googleapis.com%2Fcss%3Ffamily%3DEncode%2BSans%2BSemi%2BCondensed;fontStyle=2;strokeColor=#7994A9;" parent="vklXVT9jZYQZWCP35pfa-20" vertex="1">
          <mxGeometry width="30" height="30" as="geometry">
            <mxRectangle width="30" height="30" as="alternateBounds" />
          </mxGeometry>
        </mxCell>
        <mxCell id="vklXVT9jZYQZWCP35pfa-22" value="password    binary             " style="shape=partialRectangle;connectable=0;fillColor=none;top=0;left=0;bottom=0;right=0;align=left;spacingLeft=6;overflow=hidden;fontFamily=Encode Sans Semi Condensed;fontSource=https%3A%2F%2Ffonts.googleapis.com%2Fcss%3Ffamily%3DEncode%2BSans%2BSemi%2BCondensed;fontStyle=2;strokeColor=#7994A9;" parent="vklXVT9jZYQZWCP35pfa-20" vertex="1">
          <mxGeometry x="30" width="200" height="30" as="geometry">
            <mxRectangle width="200" height="30" as="alternateBounds" />
          </mxGeometry>
        </mxCell>
        <mxCell id="vklXVT9jZYQZWCP35pfa-23" value="" style="shape=tableRow;horizontal=0;startSize=0;swimlaneHead=0;swimlaneBody=0;fillColor=none;collapsible=0;dropTarget=0;points=[[0,0.5],[1,0.5]];portConstraint=eastwest;top=0;left=0;right=0;bottom=0;fontFamily=Encode Sans Semi Condensed;fontSource=https%3A%2F%2Ffonts.googleapis.com%2Fcss%3Ffamily%3DEncode%2BSans%2BSemi%2BCondensed;fontStyle=2;strokeColor=#7994A9;" parent="vklXVT9jZYQZWCP35pfa-13" vertex="1">
          <mxGeometry y="120" width="230" height="30" as="geometry" />
        </mxCell>
        <mxCell id="vklXVT9jZYQZWCP35pfa-24" value="FK" style="shape=partialRectangle;connectable=0;fillColor=none;top=0;left=0;bottom=0;right=0;editable=1;overflow=hidden;fontFamily=Encode Sans Semi Condensed;fontSource=https%3A%2F%2Ffonts.googleapis.com%2Fcss%3Ffamily%3DEncode%2BSans%2BSemi%2BCondensed;fontStyle=2;strokeColor=#7994A9;" parent="vklXVT9jZYQZWCP35pfa-23" vertex="1">
          <mxGeometry width="30" height="30" as="geometry">
            <mxRectangle width="30" height="30" as="alternateBounds" />
          </mxGeometry>
        </mxCell>
        <mxCell id="vklXVT9jZYQZWCP35pfa-25" value="collection    int(10)[20]" style="shape=partialRectangle;connectable=0;fillColor=none;top=0;left=0;bottom=0;right=0;align=left;spacingLeft=6;overflow=hidden;fontFamily=Encode Sans Semi Condensed;fontSource=https%3A%2F%2Ffonts.googleapis.com%2Fcss%3Ffamily%3DEncode%2BSans%2BSemi%2BCondensed;fontStyle=2;strokeColor=#7994A9;" parent="vklXVT9jZYQZWCP35pfa-23" vertex="1">
          <mxGeometry x="30" width="200" height="30" as="geometry">
            <mxRectangle width="200" height="30" as="alternateBounds" />
          </mxGeometry>
        </mxCell>
        <mxCell id="vklXVT9jZYQZWCP35pfa-65" value="Music Database" style="shape=table;startSize=30;container=1;collapsible=1;childLayout=tableLayout;fixedRows=1;rowLines=0;fontStyle=1;align=center;resizeLast=1;fontFamily=Encode Sans Semi Condensed;fontSource=https%3A%2F%2Ffonts.googleapis.com%2Fcss%3Ffamily%3DEncode%2BSans%2BSemi%2BCondensed;fillColor=#CBD9E2;strokeColor=#7994A9;" parent="1" vertex="1">
          <mxGeometry x="150" y="360" width="230" height="150" as="geometry" />
        </mxCell>
        <mxCell id="vklXVT9jZYQZWCP35pfa-66" value="" style="shape=tableRow;horizontal=0;startSize=0;swimlaneHead=0;swimlaneBody=0;fillColor=none;collapsible=0;dropTarget=0;points=[[0,0.5],[1,0.5]];portConstraint=eastwest;top=0;left=0;right=0;bottom=1;fontFamily=Encode Sans Semi Condensed;fontSource=https%3A%2F%2Ffonts.googleapis.com%2Fcss%3Ffamily%3DEncode%2BSans%2BSemi%2BCondensed;fontStyle=2;strokeColor=#7994A9;" parent="vklXVT9jZYQZWCP35pfa-65" vertex="1">
          <mxGeometry y="30" width="230" height="30" as="geometry" />
        </mxCell>
        <mxCell id="vklXVT9jZYQZWCP35pfa-67" value="PK" style="shape=partialRectangle;connectable=0;fillColor=none;top=0;left=0;bottom=0;right=0;fontStyle=3;overflow=hidden;fontFamily=Encode Sans Semi Condensed;fontSource=https%3A%2F%2Ffonts.googleapis.com%2Fcss%3Ffamily%3DEncode%2BSans%2BSemi%2BCondensed;strokeColor=#7994A9;" parent="vklXVT9jZYQZWCP35pfa-66" vertex="1">
          <mxGeometry width="30" height="30" as="geometry">
            <mxRectangle width="30" height="30" as="alternateBounds" />
          </mxGeometry>
        </mxCell>
        <mxCell id="vklXVT9jZYQZWCP35pfa-68" value="id                int(10)            " style="shape=partialRectangle;connectable=0;fillColor=none;top=0;left=0;bottom=0;right=0;align=left;spacingLeft=6;fontStyle=3;overflow=hidden;fontFamily=Encode Sans Semi Condensed;fontSource=https%3A%2F%2Ffonts.googleapis.com%2Fcss%3Ffamily%3DEncode%2BSans%2BSemi%2BCondensed;strokeColor=#7994A9;" parent="vklXVT9jZYQZWCP35pfa-66" vertex="1">
          <mxGeometry x="30" width="200" height="30" as="geometry">
            <mxRectangle width="200" height="30" as="alternateBounds" />
          </mxGeometry>
        </mxCell>
        <mxCell id="vklXVT9jZYQZWCP35pfa-69" value="" style="shape=tableRow;horizontal=0;startSize=0;swimlaneHead=0;swimlaneBody=0;fillColor=none;collapsible=0;dropTarget=0;points=[[0,0.5],[1,0.5]];portConstraint=eastwest;top=0;left=0;right=0;bottom=0;fontFamily=Encode Sans Semi Condensed;fontSource=https%3A%2F%2Ffonts.googleapis.com%2Fcss%3Ffamily%3DEncode%2BSans%2BSemi%2BCondensed;fontStyle=2;strokeColor=#7994A9;" parent="vklXVT9jZYQZWCP35pfa-65" vertex="1">
          <mxGeometry y="60" width="230" height="30" as="geometry" />
        </mxCell>
        <mxCell id="vklXVT9jZYQZWCP35pfa-70" value="" style="shape=partialRectangle;connectable=0;fillColor=none;top=0;left=0;bottom=0;right=0;editable=1;overflow=hidden;fontFamily=Encode Sans Semi Condensed;fontSource=https%3A%2F%2Ffonts.googleapis.com%2Fcss%3Ffamily%3DEncode%2BSans%2BSemi%2BCondensed;fontStyle=2;strokeColor=#7994A9;" parent="vklXVT9jZYQZWCP35pfa-69" vertex="1">
          <mxGeometry width="30" height="30" as="geometry">
            <mxRectangle width="30" height="30" as="alternateBounds" />
          </mxGeometry>
        </mxCell>
        <mxCell id="vklXVT9jZYQZWCP35pfa-71" value="song           bytearray  " style="shape=partialRectangle;connectable=0;fillColor=none;top=0;left=0;bottom=0;right=0;align=left;spacingLeft=6;overflow=hidden;fontFamily=Encode Sans Semi Condensed;fontSource=https%3A%2F%2Ffonts.googleapis.com%2Fcss%3Ffamily%3DEncode%2BSans%2BSemi%2BCondensed;fontStyle=2;strokeColor=#7994A9;" parent="vklXVT9jZYQZWCP35pfa-69" vertex="1">
          <mxGeometry x="30" width="200" height="30" as="geometry">
            <mxRectangle width="200" height="30" as="alternateBounds" />
          </mxGeometry>
        </mxCell>
        <mxCell id="vklXVT9jZYQZWCP35pfa-72" value="" style="shape=tableRow;horizontal=0;startSize=0;swimlaneHead=0;swimlaneBody=0;fillColor=none;collapsible=0;dropTarget=0;points=[[0,0.5],[1,0.5]];portConstraint=eastwest;top=0;left=0;right=0;bottom=0;fontFamily=Encode Sans Semi Condensed;fontSource=https%3A%2F%2Ffonts.googleapis.com%2Fcss%3Ffamily%3DEncode%2BSans%2BSemi%2BCondensed;fontStyle=2;strokeColor=#7994A9;" parent="vklXVT9jZYQZWCP35pfa-65" vertex="1">
          <mxGeometry y="90" width="230" height="30" as="geometry" />
        </mxCell>
        <mxCell id="vklXVT9jZYQZWCP35pfa-73" value="" style="shape=partialRectangle;connectable=0;fillColor=none;top=0;left=0;bottom=0;right=0;editable=1;overflow=hidden;fontFamily=Encode Sans Semi Condensed;fontSource=https%3A%2F%2Ffonts.googleapis.com%2Fcss%3Ffamily%3DEncode%2BSans%2BSemi%2BCondensed;fontStyle=2;strokeColor=#7994A9;" parent="vklXVT9jZYQZWCP35pfa-72" vertex="1">
          <mxGeometry width="30" height="30" as="geometry">
            <mxRectangle width="30" height="30" as="alternateBounds" />
          </mxGeometry>
        </mxCell>
        <mxCell id="vklXVT9jZYQZWCP35pfa-74" value="type           int(1)" style="shape=partialRectangle;connectable=0;fillColor=none;top=0;left=0;bottom=0;right=0;align=left;spacingLeft=6;overflow=hidden;fontFamily=Encode Sans Semi Condensed;fontSource=https%3A%2F%2Ffonts.googleapis.com%2Fcss%3Ffamily%3DEncode%2BSans%2BSemi%2BCondensed;fontStyle=2;strokeColor=#7994A9;" parent="vklXVT9jZYQZWCP35pfa-72" vertex="1">
          <mxGeometry x="30" width="200" height="30" as="geometry">
            <mxRectangle width="200" height="30" as="alternateBounds" />
          </mxGeometry>
        </mxCell>
        <mxCell id="vklXVT9jZYQZWCP35pfa-127" value="" style="shape=tableRow;horizontal=0;startSize=0;swimlaneHead=0;swimlaneBody=0;fillColor=none;collapsible=0;dropTarget=0;points=[[0,0.5],[1,0.5]];portConstraint=eastwest;top=0;left=0;right=0;bottom=0;fontFamily=Encode Sans Semi Condensed;fontSource=https%3A%2F%2Ffonts.googleapis.com%2Fcss%3Ffamily%3DEncode%2BSans%2BSemi%2BCondensed;fontStyle=2;strokeColor=#7994A9;" parent="vklXVT9jZYQZWCP35pfa-65" vertex="1">
          <mxGeometry y="120" width="230" height="30" as="geometry" />
        </mxCell>
        <mxCell id="vklXVT9jZYQZWCP35pfa-128" value="FK" style="shape=partialRectangle;connectable=0;fillColor=none;top=0;left=0;bottom=0;right=0;editable=1;overflow=hidden;fontFamily=Encode Sans Semi Condensed;fontSource=https%3A%2F%2Ffonts.googleapis.com%2Fcss%3Ffamily%3DEncode%2BSans%2BSemi%2BCondensed;fontStyle=2;strokeColor=#7994A9;" parent="vklXVT9jZYQZWCP35pfa-127" vertex="1">
          <mxGeometry width="30" height="30" as="geometry">
            <mxRectangle width="30" height="30" as="alternateBounds" />
          </mxGeometry>
        </mxCell>
        <mxCell id="vklXVT9jZYQZWCP35pfa-129" value="user_id      int(10)" style="shape=partialRectangle;connectable=0;fillColor=none;top=0;left=0;bottom=0;right=0;align=left;spacingLeft=6;overflow=hidden;fontFamily=Encode Sans Semi Condensed;fontSource=https%3A%2F%2Ffonts.googleapis.com%2Fcss%3Ffamily%3DEncode%2BSans%2BSemi%2BCondensed;fontStyle=2;strokeColor=#7994A9;" parent="vklXVT9jZYQZWCP35pfa-127" vertex="1">
          <mxGeometry x="30" width="200" height="30" as="geometry">
            <mxRectangle width="200" height="30" as="alternateBounds" />
          </mxGeometry>
        </mxCell>
        <mxCell id="vklXVT9jZYQZWCP35pfa-130" value="Potential Pairs" style="shape=table;startSize=30;container=1;collapsible=1;childLayout=tableLayout;fixedRows=1;rowLines=0;fontStyle=1;align=center;resizeLast=1;fontFamily=Encode Sans Semi Condensed;fontSource=https%3A%2F%2Ffonts.googleapis.com%2Fcss%3Ffamily%3DEncode%2BSans%2BSemi%2BCondensed;fillColor=#CBD9E2;strokeColor=#7994A9;" parent="1" vertex="1">
          <mxGeometry x="500" y="68" width="230" height="210" as="geometry" />
        </mxCell>
        <mxCell id="vklXVT9jZYQZWCP35pfa-131" value="" style="shape=tableRow;horizontal=0;startSize=0;swimlaneHead=0;swimlaneBody=0;fillColor=none;collapsible=0;dropTarget=0;points=[[0,0.5],[1,0.5]];portConstraint=eastwest;top=0;left=0;right=0;bottom=1;fontFamily=Encode Sans Semi Condensed;fontSource=https%3A%2F%2Ffonts.googleapis.com%2Fcss%3Ffamily%3DEncode%2BSans%2BSemi%2BCondensed;fontStyle=2;strokeColor=#7994A9;" parent="vklXVT9jZYQZWCP35pfa-130" vertex="1">
          <mxGeometry y="30" width="230" height="30" as="geometry" />
        </mxCell>
        <mxCell id="vklXVT9jZYQZWCP35pfa-132" value="PK" style="shape=partialRectangle;connectable=0;fillColor=none;top=0;left=0;bottom=0;right=0;fontStyle=3;overflow=hidden;fontFamily=Encode Sans Semi Condensed;fontSource=https%3A%2F%2Ffonts.googleapis.com%2Fcss%3Ffamily%3DEncode%2BSans%2BSemi%2BCondensed;strokeColor=#7994A9;" parent="vklXVT9jZYQZWCP35pfa-131" vertex="1">
          <mxGeometry width="30" height="30" as="geometry">
            <mxRectangle width="30" height="30" as="alternateBounds" />
          </mxGeometry>
        </mxCell>
        <mxCell id="vklXVT9jZYQZWCP35pfa-133" value="temp_pair_id   int(10)       " style="shape=partialRectangle;connectable=0;fillColor=none;top=0;left=0;bottom=0;right=0;align=left;spacingLeft=6;fontStyle=3;overflow=hidden;fontFamily=Encode Sans Semi Condensed;fontSource=https%3A%2F%2Ffonts.googleapis.com%2Fcss%3Ffamily%3DEncode%2BSans%2BSemi%2BCondensed;strokeColor=#7994A9;" parent="vklXVT9jZYQZWCP35pfa-131" vertex="1">
          <mxGeometry x="30" width="200" height="30" as="geometry">
            <mxRectangle width="200" height="30" as="alternateBounds" />
          </mxGeometry>
        </mxCell>
        <mxCell id="vklXVT9jZYQZWCP35pfa-134" value="" style="shape=tableRow;horizontal=0;startSize=0;swimlaneHead=0;swimlaneBody=0;fillColor=none;collapsible=0;dropTarget=0;points=[[0,0.5],[1,0.5]];portConstraint=eastwest;top=0;left=0;right=0;bottom=0;fontFamily=Encode Sans Semi Condensed;fontSource=https%3A%2F%2Ffonts.googleapis.com%2Fcss%3Ffamily%3DEncode%2BSans%2BSemi%2BCondensed;fontStyle=2;strokeColor=#7994A9;" parent="vklXVT9jZYQZWCP35pfa-130" vertex="1">
          <mxGeometry y="60" width="230" height="30" as="geometry" />
        </mxCell>
        <mxCell id="vklXVT9jZYQZWCP35pfa-135" value="FK" style="shape=partialRectangle;connectable=0;fillColor=none;top=0;left=0;bottom=0;right=0;editable=1;overflow=hidden;fontFamily=Encode Sans Semi Condensed;fontSource=https%3A%2F%2Ffonts.googleapis.com%2Fcss%3Ffamily%3DEncode%2BSans%2BSemi%2BCondensed;fontStyle=2;strokeColor=#7994A9;" parent="vklXVT9jZYQZWCP35pfa-134" vertex="1">
          <mxGeometry width="30" height="30" as="geometry">
            <mxRectangle width="30" height="30" as="alternateBounds" />
          </mxGeometry>
        </mxCell>
        <mxCell id="vklXVT9jZYQZWCP35pfa-136" value="encoding          int(10)   " style="shape=partialRectangle;connectable=0;fillColor=none;top=0;left=0;bottom=0;right=0;align=left;spacingLeft=6;overflow=hidden;fontFamily=Encode Sans Semi Condensed;fontSource=https%3A%2F%2Ffonts.googleapis.com%2Fcss%3Ffamily%3DEncode%2BSans%2BSemi%2BCondensed;fontStyle=2;strokeColor=#7994A9;" parent="vklXVT9jZYQZWCP35pfa-134" vertex="1">
          <mxGeometry x="30" width="200" height="30" as="geometry">
            <mxRectangle width="200" height="30" as="alternateBounds" />
          </mxGeometry>
        </mxCell>
        <mxCell id="vklXVT9jZYQZWCP35pfa-140" value="" style="shape=tableRow;horizontal=0;startSize=0;swimlaneHead=0;swimlaneBody=0;fillColor=none;collapsible=0;dropTarget=0;points=[[0,0.5],[1,0.5]];portConstraint=eastwest;top=0;left=0;right=0;bottom=0;fontFamily=Encode Sans Semi Condensed;fontSource=https%3A%2F%2Ffonts.googleapis.com%2Fcss%3Ffamily%3DEncode%2BSans%2BSemi%2BCondensed;fontStyle=2;strokeColor=#7994A9;" parent="vklXVT9jZYQZWCP35pfa-130" vertex="1">
          <mxGeometry y="90" width="230" height="30" as="geometry" />
        </mxCell>
        <mxCell id="vklXVT9jZYQZWCP35pfa-141" value="FK" style="shape=partialRectangle;connectable=0;fillColor=none;top=0;left=0;bottom=0;right=0;editable=1;overflow=hidden;fontFamily=Encode Sans Semi Condensed;fontSource=https%3A%2F%2Ffonts.googleapis.com%2Fcss%3Ffamily%3DEncode%2BSans%2BSemi%2BCondensed;fontStyle=2;strokeColor=#7994A9;" parent="vklXVT9jZYQZWCP35pfa-140" vertex="1">
          <mxGeometry width="30" height="30" as="geometry">
            <mxRectangle width="30" height="30" as="alternateBounds" />
          </mxGeometry>
        </mxCell>
        <mxCell id="vklXVT9jZYQZWCP35pfa-142" value="input_song     int(10)        " style="shape=partialRectangle;connectable=0;fillColor=none;top=0;left=0;bottom=0;right=0;align=left;spacingLeft=6;overflow=hidden;fontFamily=Encode Sans Semi Condensed;fontSource=https%3A%2F%2Ffonts.googleapis.com%2Fcss%3Ffamily%3DEncode%2BSans%2BSemi%2BCondensed;fontStyle=2;strokeColor=#7994A9;" parent="vklXVT9jZYQZWCP35pfa-140" vertex="1">
          <mxGeometry x="30" width="200" height="30" as="geometry">
            <mxRectangle width="200" height="30" as="alternateBounds" />
          </mxGeometry>
        </mxCell>
        <mxCell id="vklXVT9jZYQZWCP35pfa-143" value="" style="shape=tableRow;horizontal=0;startSize=0;swimlaneHead=0;swimlaneBody=0;fillColor=none;collapsible=0;dropTarget=0;points=[[0,0.5],[1,0.5]];portConstraint=eastwest;top=0;left=0;right=0;bottom=0;fontFamily=Encode Sans Semi Condensed;fontSource=https%3A%2F%2Ffonts.googleapis.com%2Fcss%3Ffamily%3DEncode%2BSans%2BSemi%2BCondensed;fontStyle=2;strokeColor=#7994A9;" parent="vklXVT9jZYQZWCP35pfa-130" vertex="1">
          <mxGeometry y="120" width="230" height="30" as="geometry" />
        </mxCell>
        <mxCell id="vklXVT9jZYQZWCP35pfa-144" value="" style="shape=partialRectangle;connectable=0;fillColor=none;top=0;left=0;bottom=0;right=0;editable=1;overflow=hidden;fontFamily=Encode Sans Semi Condensed;fontSource=https%3A%2F%2Ffonts.googleapis.com%2Fcss%3Ffamily%3DEncode%2BSans%2BSemi%2BCondensed;fontStyle=2;strokeColor=#7994A9;" parent="vklXVT9jZYQZWCP35pfa-143" vertex="1">
          <mxGeometry width="30" height="30" as="geometry">
            <mxRectangle width="30" height="30" as="alternateBounds" />
          </mxGeometry>
        </mxCell>
        <mxCell id="vklXVT9jZYQZWCP35pfa-145" value="rating               int(10)" style="shape=partialRectangle;connectable=0;fillColor=none;top=0;left=0;bottom=0;right=0;align=left;spacingLeft=6;overflow=hidden;fontFamily=Encode Sans Semi Condensed;fontSource=https%3A%2F%2Ffonts.googleapis.com%2Fcss%3Ffamily%3DEncode%2BSans%2BSemi%2BCondensed;fontStyle=2;strokeColor=#7994A9;" parent="vklXVT9jZYQZWCP35pfa-143" vertex="1">
          <mxGeometry x="30" width="200" height="30" as="geometry">
            <mxRectangle width="200" height="30" as="alternateBounds" />
          </mxGeometry>
        </mxCell>
        <mxCell id="vklXVT9jZYQZWCP35pfa-146" value="" style="shape=tableRow;horizontal=0;startSize=0;swimlaneHead=0;swimlaneBody=0;fillColor=none;collapsible=0;dropTarget=0;points=[[0,0.5],[1,0.5]];portConstraint=eastwest;top=0;left=0;right=0;bottom=0;fontFamily=Encode Sans Semi Condensed;fontSource=https%3A%2F%2Ffonts.googleapis.com%2Fcss%3Ffamily%3DEncode%2BSans%2BSemi%2BCondensed;fontStyle=2;strokeColor=#7994A9;" parent="vklXVT9jZYQZWCP35pfa-130" vertex="1">
          <mxGeometry y="150" width="230" height="30" as="geometry" />
        </mxCell>
        <mxCell id="vklXVT9jZYQZWCP35pfa-147" value="" style="shape=partialRectangle;connectable=0;fillColor=none;top=0;left=0;bottom=0;right=0;editable=1;overflow=hidden;fontFamily=Encode Sans Semi Condensed;fontSource=https%3A%2F%2Ffonts.googleapis.com%2Fcss%3Ffamily%3DEncode%2BSans%2BSemi%2BCondensed;fontStyle=2;strokeColor=#7994A9;" parent="vklXVT9jZYQZWCP35pfa-146" vertex="1">
          <mxGeometry width="30" height="30" as="geometry">
            <mxRectangle width="30" height="30" as="alternateBounds" />
          </mxGeometry>
        </mxCell>
        <mxCell id="vklXVT9jZYQZWCP35pfa-148" value="listen_time      float" style="shape=partialRectangle;connectable=0;fillColor=none;top=0;left=0;bottom=0;right=0;align=left;spacingLeft=6;overflow=hidden;fontFamily=Encode Sans Semi Condensed;fontSource=https%3A%2F%2Ffonts.googleapis.com%2Fcss%3Ffamily%3DEncode%2BSans%2BSemi%2BCondensed;fontStyle=2;strokeColor=#7994A9;" parent="vklXVT9jZYQZWCP35pfa-146" vertex="1">
          <mxGeometry x="30" width="200" height="30" as="geometry">
            <mxRectangle width="200" height="30" as="alternateBounds" />
          </mxGeometry>
        </mxCell>
        <mxCell id="vklXVT9jZYQZWCP35pfa-151" value="" style="shape=tableRow;horizontal=0;startSize=0;swimlaneHead=0;swimlaneBody=0;fillColor=none;collapsible=0;dropTarget=0;points=[[0,0.5],[1,0.5]];portConstraint=eastwest;top=0;left=0;right=0;bottom=0;fontFamily=Encode Sans Semi Condensed;fontSource=https%3A%2F%2Ffonts.googleapis.com%2Fcss%3Ffamily%3DEncode%2BSans%2BSemi%2BCondensed;fontStyle=2;strokeColor=#7994A9;" parent="vklXVT9jZYQZWCP35pfa-130" vertex="1">
          <mxGeometry y="180" width="230" height="30" as="geometry" />
        </mxCell>
        <mxCell id="vklXVT9jZYQZWCP35pfa-152" value="" style="shape=partialRectangle;connectable=0;fillColor=none;top=0;left=0;bottom=0;right=0;editable=1;overflow=hidden;fontFamily=Encode Sans Semi Condensed;fontSource=https%3A%2F%2Ffonts.googleapis.com%2Fcss%3Ffamily%3DEncode%2BSans%2BSemi%2BCondensed;fontStyle=2;strokeColor=#7994A9;" parent="vklXVT9jZYQZWCP35pfa-151" vertex="1">
          <mxGeometry width="30" height="30" as="geometry">
            <mxRectangle width="30" height="30" as="alternateBounds" />
          </mxGeometry>
        </mxCell>
        <mxCell id="vklXVT9jZYQZWCP35pfa-153" value="created_at       date             " style="shape=partialRectangle;connectable=0;fillColor=none;top=0;left=0;bottom=0;right=0;align=left;spacingLeft=6;overflow=hidden;fontFamily=Encode Sans Semi Condensed;fontSource=https%3A%2F%2Ffonts.googleapis.com%2Fcss%3Ffamily%3DEncode%2BSans%2BSemi%2BCondensed;fontStyle=2;strokeColor=#7994A9;" parent="vklXVT9jZYQZWCP35pfa-151" vertex="1">
          <mxGeometry x="30" width="200" height="30" as="geometry">
            <mxRectangle width="200" height="30" as="alternateBounds" />
          </mxGeometry>
        </mxCell>
        <mxCell id="vklXVT9jZYQZWCP35pfa-149" value="" style="endArrow=ERzeroToMany;startArrow=ERone;endFill=1;startFill=0;fontFamily=Encode Sans Semi Condensed;fontSource=https%3A%2F%2Ffonts.googleapis.com%2Fcss%3Ffamily%3DEncode%2BSans%2BSemi%2BCondensed;fontStyle=2;entryX=1;entryY=0.5;entryDx=0;entryDy=0;strokeColor=#7994A9;exitX=0;exitY=0.5;exitDx=0;exitDy=0;" parent="1" target="vklXVT9jZYQZWCP35pfa-20" edge="1">
          <mxGeometry width="100" height="100" relative="1" as="geometry">
            <mxPoint x="500" y="173" as="sourcePoint" />
            <mxPoint x="470" y="328" as="targetPoint" />
          </mxGeometry>
        </mxCell>
        <mxCell id="vklXVT9jZYQZWCP35pfa-150" value="" style="endArrow=ERzeroToMany;startArrow=ERzeroToMany;endFill=1;startFill=0;fontFamily=Encode Sans Semi Condensed;fontSource=https%3A%2F%2Ffonts.googleapis.com%2Fcss%3Ffamily%3DEncode%2BSans%2BSemi%2BCondensed;fontStyle=2;entryX=0;entryY=0.5;entryDx=0;entryDy=0;strokeColor=#7994A9;exitX=1;exitY=0.5;exitDx=0;exitDy=0;edgeStyle=orthogonalEdgeStyle;" parent="1" source="vklXVT9jZYQZWCP35pfa-69" target="vklXVT9jZYQZWCP35pfa-140" edge="1">
          <mxGeometry width="100" height="100" relative="1" as="geometry">
            <mxPoint x="275" y="280" as="sourcePoint" />
            <mxPoint x="275" y="350" as="targetPoint" />
          </mxGeometry>
        </mxCell>
        <mxCell id="vklXVT9jZYQZWCP35pfa-170" value="Final Pairs" style="shape=table;startSize=30;container=1;collapsible=1;childLayout=tableLayout;fixedRows=1;rowLines=0;fontStyle=1;align=center;resizeLast=1;fontFamily=Encode Sans Semi Condensed;fontSource=https%3A%2F%2Ffonts.googleapis.com%2Fcss%3Ffamily%3DEncode%2BSans%2BSemi%2BCondensed;fillColor=#CBD9E2;strokeColor=#7994A9;" parent="1" vertex="1">
          <mxGeometry x="500" y="420" width="230" height="120" as="geometry" />
        </mxCell>
        <mxCell id="vklXVT9jZYQZWCP35pfa-171" value="" style="shape=tableRow;horizontal=0;startSize=0;swimlaneHead=0;swimlaneBody=0;fillColor=none;collapsible=0;dropTarget=0;points=[[0,0.5],[1,0.5]];portConstraint=eastwest;top=0;left=0;right=0;bottom=1;fontFamily=Encode Sans Semi Condensed;fontSource=https%3A%2F%2Ffonts.googleapis.com%2Fcss%3Ffamily%3DEncode%2BSans%2BSemi%2BCondensed;fontStyle=2;strokeColor=#7994A9;" parent="vklXVT9jZYQZWCP35pfa-170" vertex="1">
          <mxGeometry y="30" width="230" height="30" as="geometry" />
        </mxCell>
        <mxCell id="vklXVT9jZYQZWCP35pfa-172" value="PK" style="shape=partialRectangle;connectable=0;fillColor=none;top=0;left=0;bottom=0;right=0;fontStyle=3;overflow=hidden;fontFamily=Encode Sans Semi Condensed;fontSource=https%3A%2F%2Ffonts.googleapis.com%2Fcss%3Ffamily%3DEncode%2BSans%2BSemi%2BCondensed;strokeColor=#7994A9;" parent="vklXVT9jZYQZWCP35pfa-171" vertex="1">
          <mxGeometry width="30" height="30" as="geometry">
            <mxRectangle width="30" height="30" as="alternateBounds" />
          </mxGeometry>
        </mxCell>
        <mxCell id="vklXVT9jZYQZWCP35pfa-173" value="pair_id               int(10)       " style="shape=partialRectangle;connectable=0;fillColor=none;top=0;left=0;bottom=0;right=0;align=left;spacingLeft=6;fontStyle=3;overflow=hidden;fontFamily=Encode Sans Semi Condensed;fontSource=https%3A%2F%2Ffonts.googleapis.com%2Fcss%3Ffamily%3DEncode%2BSans%2BSemi%2BCondensed;strokeColor=#7994A9;" parent="vklXVT9jZYQZWCP35pfa-171" vertex="1">
          <mxGeometry x="30" width="200" height="30" as="geometry">
            <mxRectangle width="200" height="30" as="alternateBounds" />
          </mxGeometry>
        </mxCell>
        <mxCell id="vklXVT9jZYQZWCP35pfa-174" value="" style="shape=tableRow;horizontal=0;startSize=0;swimlaneHead=0;swimlaneBody=0;fillColor=none;collapsible=0;dropTarget=0;points=[[0,0.5],[1,0.5]];portConstraint=eastwest;top=0;left=0;right=0;bottom=0;fontFamily=Encode Sans Semi Condensed;fontSource=https%3A%2F%2Ffonts.googleapis.com%2Fcss%3Ffamily%3DEncode%2BSans%2BSemi%2BCondensed;fontStyle=2;strokeColor=#7994A9;" parent="vklXVT9jZYQZWCP35pfa-170" vertex="1">
          <mxGeometry y="60" width="230" height="30" as="geometry" />
        </mxCell>
        <mxCell id="vklXVT9jZYQZWCP35pfa-175" value="FK" style="shape=partialRectangle;connectable=0;fillColor=none;top=0;left=0;bottom=0;right=0;editable=1;overflow=hidden;fontFamily=Encode Sans Semi Condensed;fontSource=https%3A%2F%2Ffonts.googleapis.com%2Fcss%3Ffamily%3DEncode%2BSans%2BSemi%2BCondensed;fontStyle=2;strokeColor=#7994A9;" parent="vklXVT9jZYQZWCP35pfa-174" vertex="1">
          <mxGeometry width="30" height="30" as="geometry">
            <mxRectangle width="30" height="30" as="alternateBounds" />
          </mxGeometry>
        </mxCell>
        <mxCell id="vklXVT9jZYQZWCP35pfa-176" value="temp_pair_id   int(10)       " style="shape=partialRectangle;connectable=0;fillColor=none;top=0;left=0;bottom=0;right=0;align=left;spacingLeft=6;overflow=hidden;fontFamily=Encode Sans Semi Condensed;fontSource=https%3A%2F%2Ffonts.googleapis.com%2Fcss%3Ffamily%3DEncode%2BSans%2BSemi%2BCondensed;fontStyle=2;strokeColor=#7994A9;" parent="vklXVT9jZYQZWCP35pfa-174" vertex="1">
          <mxGeometry x="30" width="200" height="30" as="geometry">
            <mxRectangle width="200" height="30" as="alternateBounds" />
          </mxGeometry>
        </mxCell>
        <mxCell id="vklXVT9jZYQZWCP35pfa-177" value="" style="shape=tableRow;horizontal=0;startSize=0;swimlaneHead=0;swimlaneBody=0;fillColor=none;collapsible=0;dropTarget=0;points=[[0,0.5],[1,0.5]];portConstraint=eastwest;top=0;left=0;right=0;bottom=0;fontFamily=Encode Sans Semi Condensed;fontSource=https%3A%2F%2Ffonts.googleapis.com%2Fcss%3Ffamily%3DEncode%2BSans%2BSemi%2BCondensed;fontStyle=2;strokeColor=#7994A9;" parent="vklXVT9jZYQZWCP35pfa-170" vertex="1">
          <mxGeometry y="90" width="230" height="30" as="geometry" />
        </mxCell>
        <mxCell id="vklXVT9jZYQZWCP35pfa-178" value="" style="shape=partialRectangle;connectable=0;fillColor=none;top=0;left=0;bottom=0;right=0;editable=1;overflow=hidden;fontFamily=Encode Sans Semi Condensed;fontSource=https%3A%2F%2Ffonts.googleapis.com%2Fcss%3Ffamily%3DEncode%2BSans%2BSemi%2BCondensed;fontStyle=2;strokeColor=#7994A9;" parent="vklXVT9jZYQZWCP35pfa-177" vertex="1">
          <mxGeometry width="30" height="30" as="geometry">
            <mxRectangle width="30" height="30" as="alternateBounds" />
          </mxGeometry>
        </mxCell>
        <mxCell id="vklXVT9jZYQZWCP35pfa-179" value="score                 float           " style="shape=partialRectangle;connectable=0;fillColor=none;top=0;left=0;bottom=0;right=0;align=left;spacingLeft=6;overflow=hidden;fontFamily=Encode Sans Semi Condensed;fontSource=https%3A%2F%2Ffonts.googleapis.com%2Fcss%3Ffamily%3DEncode%2BSans%2BSemi%2BCondensed;fontStyle=2;strokeColor=#7994A9;" parent="vklXVT9jZYQZWCP35pfa-177" vertex="1">
          <mxGeometry x="30" width="200" height="30" as="geometry">
            <mxRectangle width="200" height="30" as="alternateBounds" />
          </mxGeometry>
        </mxCell>
        <mxCell id="vklXVT9jZYQZWCP35pfa-186" value="" style="endArrow=ERzeroToOne;startArrow=ERone;endFill=0;startFill=0;fontFamily=Encode Sans Semi Condensed;fontSource=https%3A%2F%2Ffonts.googleapis.com%2Fcss%3Ffamily%3DEncode%2BSans%2BSemi%2BCondensed;fontStyle=2;entryX=0.519;entryY=0.003;entryDx=0;entryDy=0;strokeColor=#7994A9;exitX=0.518;exitY=0.996;exitDx=0;exitDy=0;exitPerimeter=0;entryPerimeter=0;" parent="1" source="vklXVT9jZYQZWCP35pfa-151" target="vklXVT9jZYQZWCP35pfa-170" edge="1">
          <mxGeometry width="100" height="100" relative="1" as="geometry">
            <mxPoint x="615" y="400" as="sourcePoint" />
            <mxPoint x="390" y="235" as="targetPoint" />
          </mxGeometry>
        </mxCell>
        <mxCell id="vklXVT9jZYQZWCP35pfa-190" value="NOT NULL" style="shape=partialRectangle;connectable=0;fillColor=none;top=0;left=0;bottom=0;right=0;editable=1;overflow=hidden;fontFamily=Encode Sans Semi Condensed;fontSource=https%3A%2F%2Ffonts.googleapis.com%2Fcss%3Ffamily%3DEncode%2BSans%2BSemi%2BCondensed;fontStyle=2;strokeColor=#7994A9;" parent="1" vertex="1">
          <mxGeometry x="310" y="420" width="70" height="30" as="geometry">
            <mxRectangle width="30" height="30" as="alternateBounds" />
          </mxGeometry>
        </mxCell>
        <mxCell id="vklXVT9jZYQZWCP35pfa-191" value="NOT NULL" style="shape=partialRectangle;connectable=0;fillColor=none;top=0;left=0;bottom=0;right=0;editable=1;overflow=hidden;fontFamily=Encode Sans Semi Condensed;fontSource=https%3A%2F%2Ffonts.googleapis.com%2Fcss%3Ffamily%3DEncode%2BSans%2BSemi%2BCondensed;fontStyle=2;strokeColor=#7994A9;" parent="1" vertex="1">
          <mxGeometry x="660" y="480" width="70" height="30" as="geometry">
            <mxRectangle width="30" height="30" as="alternateBounds" />
          </mxGeometry>
        </mxCell>
        <mxCell id="vklXVT9jZYQZWCP35pfa-192" value="NOT NULL" style="shape=partialRectangle;connectable=0;fillColor=none;top=0;left=0;bottom=0;right=0;editable=1;overflow=hidden;fontFamily=Encode Sans Semi Condensed;fontSource=https%3A%2F%2Ffonts.googleapis.com%2Fcss%3Ffamily%3DEncode%2BSans%2BSemi%2BCondensed;fontStyle=2;strokeColor=#7994A9;" parent="1" vertex="1">
          <mxGeometry x="660" y="510" width="70" height="30" as="geometry">
            <mxRectangle width="30" height="30" as="alternateBounds" />
          </mxGeometry>
        </mxCell>
        <mxCell id="vklXVT9jZYQZWCP35pfa-193" value="NOT NULL" style="shape=partialRectangle;connectable=0;fillColor=none;top=0;left=0;bottom=0;right=0;editable=1;overflow=hidden;fontFamily=Encode Sans Semi Condensed;fontSource=https%3A%2F%2Ffonts.googleapis.com%2Fcss%3Ffamily%3DEncode%2BSans%2BSemi%2BCondensed;fontStyle=2;strokeColor=#7994A9;" parent="1" vertex="1">
          <mxGeometry x="660" y="128" width="70" height="30" as="geometry">
            <mxRectangle width="30" height="30" as="alternateBounds" />
          </mxGeometry>
        </mxCell>
        <mxCell id="vklXVT9jZYQZWCP35pfa-194" value="NOT NULL" style="shape=partialRectangle;connectable=0;fillColor=none;top=0;left=0;bottom=0;right=0;editable=1;overflow=hidden;fontFamily=Encode Sans Semi Condensed;fontSource=https%3A%2F%2Ffonts.googleapis.com%2Fcss%3Ffamily%3DEncode%2BSans%2BSemi%2BCondensed;fontStyle=2;strokeColor=#7994A9;" parent="1" vertex="1">
          <mxGeometry x="660" y="158" width="70" height="30" as="geometry">
            <mxRectangle width="30" height="30" as="alternateBounds" />
          </mxGeometry>
        </mxCell>
        <mxCell id="vklXVT9jZYQZWCP35pfa-195" value="NOT NULL" style="shape=partialRectangle;connectable=0;fillColor=none;top=0;left=0;bottom=0;right=0;editable=1;overflow=hidden;fontFamily=Encode Sans Semi Condensed;fontSource=https%3A%2F%2Ffonts.googleapis.com%2Fcss%3Ffamily%3DEncode%2BSans%2BSemi%2BCondensed;fontStyle=2;strokeColor=#7994A9;" parent="1" vertex="1">
          <mxGeometry x="660" y="188" width="70" height="30" as="geometry">
            <mxRectangle width="30" height="30" as="alternateBounds" />
          </mxGeometry>
        </mxCell>
        <mxCell id="vklXVT9jZYQZWCP35pfa-198" value="NOT NULL" style="shape=partialRectangle;connectable=0;fillColor=none;top=0;left=0;bottom=0;right=0;editable=1;overflow=hidden;fontFamily=Encode Sans Semi Condensed;fontSource=https%3A%2F%2Ffonts.googleapis.com%2Fcss%3Ffamily%3DEncode%2BSans%2BSemi%2BCondensed;fontStyle=2;strokeColor=#7994A9;" parent="1" vertex="1">
          <mxGeometry x="660" y="248" width="70" height="30" as="geometry">
            <mxRectangle width="30" height="30" as="alternateBounds" />
          </mxGeometry>
        </mxCell>
        <mxCell id="vklXVT9jZYQZWCP35pfa-199" value="NOT NULL" style="shape=partialRectangle;connectable=0;fillColor=none;top=0;left=0;bottom=0;right=0;editable=1;overflow=hidden;fontFamily=Encode Sans Semi Condensed;fontSource=https%3A%2F%2Ffonts.googleapis.com%2Fcss%3Ffamily%3DEncode%2BSans%2BSemi%2BCondensed;fontStyle=3;strokeColor=#7994A9;" parent="1" vertex="1">
          <mxGeometry x="660" y="450" width="70" height="30" as="geometry">
            <mxRectangle width="30" height="30" as="alternateBounds" />
          </mxGeometry>
        </mxCell>
        <mxCell id="vklXVT9jZYQZWCP35pfa-200" value="NOT NULL" style="shape=partialRectangle;connectable=0;fillColor=none;top=0;left=0;bottom=0;right=0;editable=1;overflow=hidden;fontFamily=Encode Sans Semi Condensed;fontSource=https%3A%2F%2Ffonts.googleapis.com%2Fcss%3Ffamily%3DEncode%2BSans%2BSemi%2BCondensed;fontStyle=3;strokeColor=#7994A9;" parent="1" vertex="1">
          <mxGeometry x="660" y="98" width="70" height="30" as="geometry">
            <mxRectangle width="30" height="30" as="alternateBounds" />
          </mxGeometry>
        </mxCell>
        <mxCell id="vklXVT9jZYQZWCP35pfa-203" value="NOT NULL" style="shape=partialRectangle;connectable=0;fillColor=none;top=0;left=0;bottom=0;right=0;editable=1;overflow=hidden;fontFamily=Encode Sans Semi Condensed;fontSource=https%3A%2F%2Ffonts.googleapis.com%2Fcss%3Ffamily%3DEncode%2BSans%2BSemi%2BCondensed;fontStyle=3;strokeColor=#7994A9;" parent="1" vertex="1">
          <mxGeometry x="310" y="98" width="70" height="30" as="geometry">
            <mxRectangle width="30" height="30" as="alternateBounds" />
          </mxGeometry>
        </mxCell>
        <mxCell id="vklXVT9jZYQZWCP35pfa-204" value="NOT NULL" style="shape=partialRectangle;connectable=0;fillColor=none;top=0;left=0;bottom=0;right=0;editable=1;overflow=hidden;fontFamily=Encode Sans Semi Condensed;fontSource=https%3A%2F%2Ffonts.googleapis.com%2Fcss%3Ffamily%3DEncode%2BSans%2BSemi%2BCondensed;fontStyle=2;strokeColor=#7994A9;" parent="1" vertex="1">
          <mxGeometry x="310" y="128" width="70" height="30" as="geometry">
            <mxRectangle width="30" height="30" as="alternateBounds" />
          </mxGeometry>
        </mxCell>
        <mxCell id="vklXVT9jZYQZWCP35pfa-205" value="NOT NULL" style="shape=partialRectangle;connectable=0;fillColor=none;top=0;left=0;bottom=0;right=0;editable=1;overflow=hidden;fontFamily=Encode Sans Semi Condensed;fontSource=https%3A%2F%2Ffonts.googleapis.com%2Fcss%3Ffamily%3DEncode%2BSans%2BSemi%2BCondensed;fontStyle=2;strokeColor=#7994A9;" parent="1" vertex="1">
          <mxGeometry x="310" y="158" width="70" height="30" as="geometry">
            <mxRectangle width="30" height="30" as="alternateBounds" />
          </mxGeometry>
        </mxCell>
        <mxCell id="vklXVT9jZYQZWCP35pfa-206" value="NOT NULL" style="shape=partialRectangle;connectable=0;fillColor=none;top=0;left=0;bottom=0;right=0;editable=1;overflow=hidden;fontFamily=Encode Sans Semi Condensed;fontSource=https%3A%2F%2Ffonts.googleapis.com%2Fcss%3Ffamily%3DEncode%2BSans%2BSemi%2BCondensed;fontStyle=3;strokeColor=#7994A9;" parent="1" vertex="1">
          <mxGeometry x="310" y="390" width="70" height="30" as="geometry">
            <mxRectangle width="30" height="30" as="alternateBounds" />
          </mxGeometry>
        </mxCell>
        <mxCell id="gqDmHRsu1Qf0dSz8iAGu-1" value="NOT NULL" style="shape=partialRectangle;connectable=0;fillColor=none;top=0;left=0;bottom=0;right=0;editable=1;overflow=hidden;fontFamily=Encode Sans Semi Condensed;fontSource=https%3A%2F%2Ffonts.googleapis.com%2Fcss%3Ffamily%3DEncode%2BSans%2BSemi%2BCondensed;fontStyle=2;strokeColor=#7994A9;" vertex="1" parent="1">
          <mxGeometry x="310" y="450" width="70" height="30" as="geometry">
            <mxRectangle width="30" height="30" as="alternateBounds" />
          </mxGeometry>
        </mxCell>
        <mxCell id="gqDmHRsu1Qf0dSz8iAGu-2" value="NOT NULL" style="shape=partialRectangle;connectable=0;fillColor=none;top=0;left=0;bottom=0;right=0;editable=1;overflow=hidden;fontFamily=Encode Sans Semi Condensed;fontSource=https%3A%2F%2Ffonts.googleapis.com%2Fcss%3Ffamily%3DEncode%2BSans%2BSemi%2BCondensed;fontStyle=2;strokeColor=#7994A9;" vertex="1" parent="1">
          <mxGeometry x="660" y="218" width="70" height="30" as="geometry">
            <mxRectangle width="30" height="30" as="alternateBounds" />
          </mxGeometry>
        </mxCell>
      </root>
    </mxGraphModel>
  </diagram>
</mxfile>
